<svg xmlns="http://www.w3.org/2000/svg" width="1280" height="720" viewBox="0 0 1280 720">
  <defs><linearGradient id="bg" x1="0" y1="0" x2="1" y2="1"><stop offset="0%" stop-color="#25182f"/><stop offset="100%" stop-color="#214866"/></linearGradient></defs>
  <rect width="1280" height="720" fill="url(#bg)"/>
  <rect x="80" y="80" width="540" height="560" rx="20" fill="rgba(15,20,35,0.88)" stroke="rgba(255,175,220,0.5)"/>
  <text x="116" y="130" font-family="Manrope, sans-serif" font-size="22" fill="#fff">๐ต ะัะทัะบะฐ</text>
  <rect x="116" y="160" width="470" height="260" rx="14" fill="rgba(255,255,255,0.08)"/>
  <rect x="116" y="436" width="470" height="12" rx="6" fill="rgba(255,255,255,0.2)"/>
  <rect x="116" y="436" width="280" height="12" rx="6" fill="#ff6fb7"/>
  <rect x="116" y="470" width="470" height="130" rx="12" fill="rgba(255,255,255,0.06)"/>
  <rect x="660" y="80" width="540" height="560" rx="20" fill="rgba(15,20,35,0.88)" stroke="rgba(255,175,220,0.5)"/>
  <text x="694" y="130" font-family="Manrope, sans-serif" font-size="22" fill="#fff">๐ ะะฐะปะตะฝะดะฐัั</text>
  <g transform="translate(700,170)">
    <rect width="460" height="420" rx="14" fill="rgba(255,255,255,0.06)"/>
    <g fill="rgba(255,255,255,0.13)">
      <rect x="12" y="12" width="60" height="50" rx="8"/><rect x="84" y="12" width="60" height="50" rx="8"/><rect x="156" y="12" width="60" height="50" rx="8"/><rect x="228" y="12" width="60" height="50" rx="8"/><rect x="300" y="12" width="60" height="50" rx="8"/><rect x="372" y="12" width="60" height="50" rx="8"/>
      <rect x="12" y="74" width="60" height="50" rx="8"/><rect x="84" y="74" width="60" height="50" rx="8"/><rect x="156" y="74" width="60" height="50" rx="8"/><rect x="228" y="74" width="60" height="50" rx="8"/><rect x="300" y="74" width="60" height="50" rx="8"/><rect x="372" y="74" width="60" height="50" rx="8"/>
    </g>
  </g>
</svg>
